<svg xmlns="http://www.w3.org/2000/svg" xmlns:xlink="http://www.w3.org/1999/xlink" width="1266.136" height="295.361" viewBox="0 0 1266.136 295.361">
  <defs>
    <linearGradient id="linear-gradient" x1="0.983" y1="0.985" x2="0.012" y2="0.021" gradientUnits="objectBoundingBox">
      <stop offset="0" stop-color="#00b1e0"/>
      <stop offset="1" stop-color="#00b1e0"/>
    </linearGradient>
  </defs>
  <g id="mern-howdoes" transform="translate(592.641 -2658.08)">
    <rect id="Rectangle_1758" data-name="Rectangle 1758" width="349.385" height="243.315" rx="30" transform="translate(-576 2695)" fill="#fff"/>
    <path id="Path_29000" data-name="Path 29000" d="M-156.06,505.165H-425.8a45.026,45.026,0,0,1-44.974-44.977V296.515A45.026,45.026,0,0,1-425.8,251.538h269.74a45.029,45.029,0,0,1,44.98,44.977V460.187a45.029,45.029,0,0,1-44.98,44.978ZM-425.8,261.849a34.706,34.706,0,0,0-34.666,34.666V460.187A34.708,34.708,0,0,0-425.8,494.854h269.74a34.711,34.711,0,0,0,34.672-34.666V296.515a34.709,34.709,0,0,0-34.672-34.666Z" transform="translate(-110.001 2437.848)" fill="url(#linear-gradient)"/>
    <g id="Group_3723" data-name="Group 3723" transform="translate(-592.641 2678.979)">
      <path id="Path_29001" data-name="Path 29001" d="M-143.806,522.191h-279.15c-28.749,0-52.137-23.954-52.137-53.4V301.148c0-29.444,23.388-53.4,52.137-53.4h279.15c28.749,0,52.137,23.954,52.137,53.4V468.793C-91.669,498.236-115.058,522.191-143.806,522.191ZM-422.956,250.5c-27.229,0-49.384,22.718-49.384,50.645V468.793c0,27.927,22.155,50.645,49.384,50.645h279.15c27.229,0,49.384-22.718,49.384-50.645V301.148c0-27.927-22.155-50.645-49.384-50.645Z" transform="translate(475.093 -247.75)" fill="url(#linear-gradient)"/>
    </g>
    <g id="Group_3724" data-name="Group 3724" transform="translate(-508.325 2658.08)">
      <path id="Path_29003" data-name="Path 29003" d="M-251.889,295.728H-416.61a27.824,27.824,0,0,1-27.79-27.793,27.824,27.824,0,0,1,27.793-27.792h164.722a27.821,27.821,0,0,1,27.79,27.792,27.821,27.821,0,0,1-27.794,27.793Zm-164.722-52.8a25.041,25.041,0,0,0-25.015,25.012,25.041,25.041,0,0,0,25.015,25.012h164.722a25.04,25.04,0,0,0,25.012-25.012,25.04,25.04,0,0,0-25.012-25.012Z" transform="translate(444.403 -240.143)" fill="#00b1e0"/>
    </g>
    <rect id="Rectangle_1759" data-name="Rectangle 1759" width="349.385" height="243.315" rx="30" transform="translate(-134 2695)" fill="#fff"/>
    <path id="Path_29257" data-name="Path 29257" d="M4.589,505.165H-265.154a45.028,45.028,0,0,1-44.975-44.977V296.515a45.028,45.028,0,0,1,44.975-44.977H4.589a45.028,45.028,0,0,1,44.975,44.977V460.187A45.028,45.028,0,0,1,4.589,505.165ZM-265.154,261.849a34.706,34.706,0,0,0-34.666,34.666V460.187a34.708,34.708,0,0,0,34.666,34.666H4.589a34.708,34.708,0,0,0,34.666-34.666V296.515A34.706,34.706,0,0,0,4.589,261.849Z" transform="translate(171.128 2437.462)" fill="#8aeeff"/>
    <g id="Group_3730" data-name="Group 3730" transform="translate(-151.284 2678.979)">
      <path id="Path_29258" data-name="Path 29258" d="M16.841,522.191H-262.312c-28.748,0-52.134-23.954-52.134-53.4V301.148c0-29.444,23.386-53.4,52.134-53.4H16.841c28.749,0,52.134,23.954,52.134,53.4V468.793C68.975,498.236,45.589,522.191,16.841,522.191ZM-262.312,250.5c-27.229,0-49.381,22.718-49.381,50.645V468.793c0,27.927,22.152,50.645,49.381,50.645H16.841c27.229,0,49.381-22.718,49.381-50.645V301.148c0-27.927-22.152-50.645-49.381-50.645Z" transform="translate(314.446 -247.75)" fill="#8aeeff"/>
    </g>
    <g id="Group_3731" data-name="Group 3731" transform="translate(-66.97 2658.08)">
      <path id="Path_29260" data-name="Path 29260" d="M-91.24,295.728H-255.965a27.824,27.824,0,0,1-27.792-27.792,27.824,27.824,0,0,1,27.792-27.792H-91.24a27.822,27.822,0,0,1,27.79,27.792,27.822,27.822,0,0,1-27.79,27.792Zm-164.724-52.8a25.04,25.04,0,0,0-25.012,25.012,25.04,25.04,0,0,0,25.012,25.012H-91.24A25.04,25.04,0,0,0-66.231,267.94,25.04,25.04,0,0,0-91.24,242.923Z" transform="translate(283.757 -240.143)" fill="#8aeeff"/>
    </g>
    <rect id="Rectangle_1760" data-name="Rectangle 1760" width="349.385" height="243.315" rx="30" transform="translate(307 2694.542)" fill="#fff"/>
    <path id="Path_29513" data-name="Path 29513" d="M165.234,505.165h-269.74a45.026,45.026,0,0,1-44.975-44.977V296.515a45.026,45.026,0,0,1,44.975-44.977h269.74a45.028,45.028,0,0,1,44.977,44.977V460.187a45.028,45.028,0,0,1-44.977,44.978Zm-269.74-243.316a34.706,34.706,0,0,0-34.666,34.666V460.187a34.708,34.708,0,0,0,34.666,34.666h269.74A34.71,34.71,0,0,0,199.9,460.187V296.515a34.708,34.708,0,0,0-34.669-34.666Z" transform="translate(451.418 2437.848)" fill="#00b1e0"/>
    <g id="Group_3736" data-name="Group 3736" transform="translate(290.071 2679)">
      <path id="Path_29514" data-name="Path 29514" d="M177.484,522.191H-101.663c-28.749,0-52.137-23.954-52.137-53.4V301.148c0-29.444,23.388-53.4,52.137-53.4H177.484c28.749,0,52.14,23.954,52.14,53.4V468.793C229.624,498.236,206.233,522.191,177.484,522.191ZM-101.663,250.5c-27.229,0-49.384,22.718-49.384,50.645V468.793c0,27.927,22.155,50.645,49.384,50.645H177.484c27.232,0,49.387-22.718,49.387-50.645V301.148c0-27.927-22.155-50.645-49.387-50.645Z" transform="translate(153.8 -247.75)" fill="#00b1e0"/>
    </g>
    <g id="Group_3737" data-name="Group 3737" transform="translate(374.388 2658.08)">
      <path id="Path_29516" data-name="Path 29516" d="M69.4,295.728H-95.318a27.824,27.824,0,0,1-27.792-27.792,27.824,27.824,0,0,1,27.792-27.792H69.4a27.792,27.792,0,1,1,0,55.585Zm-164.722-52.8a25.041,25.041,0,0,0-25.015,25.012,25.041,25.041,0,0,0,25.015,25.012H69.4a25.012,25.012,0,0,0,0-50.024Z" transform="translate(123.11 -240.143)" fill="#00b1e0"/>
    </g>
    <g id="Group_3775" data-name="Group 3775" transform="translate(-923 171)">
      <g id="Rectangle_1500" data-name="Rectangle 1500" transform="translate(1165 2662)" fill="#00b1e0" stroke="#00b1e0" stroke-width="1">
        <rect width="50" height="2" stroke="none"/>
        <rect x="0.5" y="0.5" width="49" height="1" fill="none"/>
      </g>
      <g id="Polygon_4" data-name="Polygon 4" transform="translate(1162 2676) rotate(-90)">
        <path id="Path_14808" data-name="Path 14808" d="M22.572,22.5H3.428a1.5,1.5,0,0,1-1.306-2.238L11.694,3.326a1.5,1.5,0,0,1,2.612,0l9.572,16.935A1.5,1.5,0,0,1,22.572,22.5Z" fill="#00b1e0"/>
        <path id="Path_14809" data-name="Path 14809" d="M13,3.065a.981.981,0,0,0-.871.508L2.557,20.508A1,1,0,0,0,3.428,22H22.572a1,1,0,0,0,.871-1.492L13.871,3.573A.981.981,0,0,0,13,3.065m0-1A1.981,1.981,0,0,1,14.741,3.08l9.572,16.935A2,2,0,0,1,22.572,23H3.428a2,2,0,0,1-1.741-2.984L11.259,3.08A1.981,1.981,0,0,1,13,2.065Z" fill="#00b1e0"/>
      </g>
    </g>
    <circle id="Ellipse_48" data-name="Ellipse 48" cx="6.962" cy="6.962" r="6.962" transform="translate(284.748 2826.88)" fill="#fff"/>
    <path id="Path_29774" data-name="Path 29774" d="M-148.111,309.206a8.016,8.016,0,0,1-8.006-8.006,8.015,8.015,0,0,1,8.006-8,8.013,8.013,0,0,1,8,8,8.014,8.014,0,0,1-8,8.006Zm0-13.924a5.922,5.922,0,0,0-5.918,5.918,5.924,5.924,0,0,0,5.918,5.921A5.925,5.925,0,0,0-142.2,301.2a5.923,5.923,0,0,0-5.911-5.918Z" transform="translate(439.822 2532.642)" fill="#00b1e0"/>
    <g id="Group_3775-2" data-name="Group 3775" transform="translate(1445.714 5461) rotate(180)">
      <g id="Rectangle_1500-2" data-name="Rectangle 1500" transform="translate(1165 2662)" fill="#8aeeff" stroke="#8aeeff" stroke-width="1">
        <rect width="50" height="2" stroke="none"/>
        <rect x="0.5" y="0.5" width="49" height="1" fill="none"/>
      </g>
      <g id="Polygon_4-2" data-name="Polygon 4" transform="translate(1162 2676) rotate(-90)">
        <path id="Path_14810" data-name="Path 14810" d="M22.572,22.5H3.428a1.5,1.5,0,0,1-1.306-2.238L11.694,3.326a1.5,1.5,0,0,1,2.612,0l9.572,16.935A1.5,1.5,0,0,1,22.572,22.5Z" fill="#8aeeff"/>
        <path id="Path_14811" data-name="Path 14811" d="M13,3.065a.981.981,0,0,0-.871.508L2.557,20.508A1,1,0,0,0,3.428,22H22.572a1,1,0,0,0,.871-1.492L13.871,3.573A.981.981,0,0,0,13,3.065m0-1A1.981,1.981,0,0,1,14.741,3.08l9.572,16.935A2,2,0,0,1,22.572,23H3.428a2,2,0,0,1-1.741-2.984L11.259,3.08A1.981,1.981,0,0,1,13,2.065Z" fill="#8aeeff"/>
      </g>
    </g>
    <circle id="Ellipse_48-2" data-name="Ellipse 48" cx="6.962" cy="6.962" r="6.962" transform="translate(237.966 2805.119) rotate(180)" fill="#fff"/>
    <path id="Path_29774-2" data-name="Path 29774" d="M-148.111,309.206a8.016,8.016,0,0,1-8.006-8.006,8.015,8.015,0,0,1,8.006-8,8.013,8.013,0,0,1,8,8,8.014,8.014,0,0,1-8,8.006Zm0-13.924a5.922,5.922,0,0,0-5.918,5.918,5.924,5.924,0,0,0,5.918,5.921A5.925,5.925,0,0,0-142.2,301.2a5.923,5.923,0,0,0-5.911-5.918Z" transform="translate(82.892 3099.358) rotate(180)" fill="#8aeeff"/>
    <g id="Group_3775-3" data-name="Group 3775" transform="translate(-1365 171)">
      <g id="Rectangle_1500-3" data-name="Rectangle 1500" transform="translate(1165 2662)" fill="#6ee2f9" stroke="#6ee2f9" stroke-width="1">
        <rect width="50" height="2" stroke="none"/>
        <rect x="0.5" y="0.5" width="49" height="1" fill="none"/>
      </g>
      <g id="Polygon_4-3" data-name="Polygon 4" transform="translate(1162 2676) rotate(-90)">
        <path id="Path_14812" data-name="Path 14812" d="M22.572,22.5H3.428a1.5,1.5,0,0,1-1.306-2.238L11.694,3.326a1.5,1.5,0,0,1,2.612,0l9.572,16.935A1.5,1.5,0,0,1,22.572,22.5Z" fill="#6ee2f9"/>
        <path id="Path_14813" data-name="Path 14813" d="M13,3.065a.981.981,0,0,0-.871.508L2.557,20.508A1,1,0,0,0,3.428,22H22.572a1,1,0,0,0,.871-1.492L13.871,3.573A.981.981,0,0,0,13,3.065m0-1A1.981,1.981,0,0,1,14.741,3.08l9.572,16.935A2,2,0,0,1,22.572,23H3.428a2,2,0,0,1-1.741-2.984L11.259,3.08A1.981,1.981,0,0,1,13,2.065Z" fill="#6ee2f9"/>
      </g>
    </g>
    <circle id="Ellipse_48-3" data-name="Ellipse 48" cx="6.962" cy="6.962" r="6.962" transform="translate(-157.252 2826.88)" fill="#fff"/>
    <path id="Path_29774-3" data-name="Path 29774" d="M-148.111,309.206a8.016,8.016,0,0,1-8.006-8.006,8.015,8.015,0,0,1,8.006-8,8.013,8.013,0,0,1,8,8,8.014,8.014,0,0,1-8,8.006Zm0-13.924a5.922,5.922,0,0,0-5.918,5.918,5.924,5.924,0,0,0,5.918,5.921A5.925,5.925,0,0,0-142.2,301.2a5.923,5.923,0,0,0-5.911-5.918Z" transform="translate(-2.178 2532.642)" fill="#6ee2f9"/>
    <g id="Group_3775-4" data-name="Group 3775" transform="translate(1003.714 5461) rotate(180)">
      <g id="Rectangle_1500-4" data-name="Rectangle 1500" transform="translate(1165 2662)" fill="#00b1e0" stroke="#00b1e0" stroke-width="1">
        <rect width="50" height="2" stroke="none"/>
        <rect x="0.5" y="0.5" width="49" height="1" fill="none"/>
      </g>
      <g id="Polygon_4-4" data-name="Polygon 4" transform="translate(1162 2676) rotate(-90)">
        <path id="Path_14814" data-name="Path 14814" d="M22.572,22.5H3.428a1.5,1.5,0,0,1-1.306-2.238L11.694,3.326a1.5,1.5,0,0,1,2.612,0l9.572,16.935A1.5,1.5,0,0,1,22.572,22.5Z" fill="#00b1e0"/>
        <path id="Path_14815" data-name="Path 14815" d="M13,3.065a.981.981,0,0,0-.871.508L2.557,20.508A1,1,0,0,0,3.428,22H22.572a1,1,0,0,0,.871-1.492L13.871,3.573A.981.981,0,0,0,13,3.065m0-1A1.981,1.981,0,0,1,14.741,3.08l9.572,16.935A2,2,0,0,1,22.572,23H3.428a2,2,0,0,1-1.741-2.984L11.259,3.08A1.981,1.981,0,0,1,13,2.065Z" fill="#00b1e0"/>
      </g>
    </g>
    <circle id="Ellipse_48-4" data-name="Ellipse 48" cx="6.962" cy="6.962" r="6.962" transform="translate(-204.034 2805.119) rotate(180)" fill="#fff"/>
    <path id="Path_29774-4" data-name="Path 29774" d="M-148.111,309.206a8.016,8.016,0,0,1-8.006-8.006,8.015,8.015,0,0,1,8.006-8,8.013,8.013,0,0,1,8,8,8.014,8.014,0,0,1-8,8.006Zm0-13.924a5.922,5.922,0,0,0-5.918,5.918,5.924,5.924,0,0,0,5.918,5.921A5.925,5.925,0,0,0-142.2,301.2a5.923,5.923,0,0,0-5.911-5.918Z" transform="translate(-359.108 3099.358) rotate(180)" fill="#00b1e0"/>
    <g id="Group_3782" data-name="Group 3782" transform="translate(-946 313)">
      <path id="Path_29002" data-name="Path 29002" d="M-252.773,293.454H-417.495a26.4,26.4,0,0,1-26.4-26.4h0a26.4,26.4,0,0,1,26.4-26.4h164.722a26.4,26.4,0,0,1,26.4,26.4h0A26.4,26.4,0,0,1-252.773,293.454Z" transform="translate(882.897 2105.351)" fill="#fff"/>
      <text id="Web" transform="translate(524.647 2379)" fill="#333" font-size="22" font-family="Graphik-Medium, Graphik" font-weight="500"><tspan x="0" y="0">Web</tspan></text>
    </g>
    <g id="Group_3781" data-name="Group 3781" transform="translate(-946 313)">
      <path id="Path_29259" data-name="Path 29259" d="M-92.127,293.454H-256.846a26.4,26.4,0,0,1-26.4-26.4h0a26.4,26.4,0,0,1,26.4-26.4H-92.127a26.4,26.4,0,0,1,26.4,26.4h0A26.4,26.4,0,0,1-92.127,293.454Z" transform="translate(1163.251 2105.351)" fill="#fff"/>
      <text id="Server" transform="translate(954.559 2379)" fill="#333" font-size="22" font-family="Graphik-Medium, Graphik" font-weight="500"><tspan x="0" y="0">Server</tspan></text>
    </g>
    <g id="Group_3780" data-name="Group 3780" transform="translate(-946 313)">
      <path id="Path_29515" data-name="Path 29515" d="M68.52,293.454H-96.2a26.4,26.4,0,0,1-26.4-26.4h0a26.4,26.4,0,0,1,26.4-26.4H68.52a26.4,26.4,0,0,1,26.4,26.4h0A26.4,26.4,0,0,1,68.52,293.454Z" transform="translate(1444.604 2105.351)" fill="#fff"/>
      <text id="Database" transform="translate(1381.94 2379)" fill="#333" font-size="22" font-family="Graphik-Medium, Graphik" font-weight="500"><tspan x="0" y="0">Database</tspan></text>
    </g>
    <text id="Express.JS" transform="translate(-99 2883)" fill="#333" font-size="26" font-family="Graphik-Medium, Graphik" font-weight="500"><tspan x="0" y="0">Express.JS</tspan></text>
    <text id="React.JS" transform="translate(-467 2881.782)" fill="#333" font-size="32" font-family="Graphik-Medium, Graphik" font-weight="500"><tspan x="0" y="0">React.JS</tspan></text>
    <g id="Group_3783" data-name="Group 3783" transform="translate(1621 2352.925)">
      <path id="Path_29775" data-name="Path 29775" d="M-1972,438.085c0-6.7-8.3-13.04-21.015-16.974,2.935-13.1,1.631-23.525-4.118-26.862a8.862,8.862,0,0,0-4.566-1.154v4.594a4.679,4.679,0,0,1,2.324.536c2.772,1.607,3.975,7.725,3.037,15.594-.224,1.936-.591,3.976-1.04,6.056a97.832,97.832,0,0,0-12.943-2.245,100.251,100.251,0,0,0-8.479-10.3c6.645-6.242,12.882-9.661,17.122-9.661v-4.594c-5.6,0-12.943,4.038-20.363,11.041-7.42-6.963-14.758-10.959-20.363-10.959v4.594c4.219,0,10.477,3.4,17.122,9.6a97.1,97.1,0,0,0-8.418,10.279,94.284,94.284,0,0,0-12.964,2.266c-.469-2.06-.815-4.058-1.06-5.974-.958-7.869.224-13.987,2.976-15.615a4.5,4.5,0,0,1,2.344-.536v-4.594a9.012,9.012,0,0,0-4.606,1.154c-5.728,3.337-7.012,13.74-4.056,26.8-12.678,3.955-20.934,10.279-20.934,16.954,0,6.7,8.3,13.04,21.015,16.974-2.935,13.1-1.631,23.525,4.117,26.862a8.886,8.886,0,0,0,4.586,1.154c5.6,0,12.943-4.038,20.363-11.041,7.42,6.963,14.757,10.959,20.363,10.959a9.012,9.012,0,0,0,4.606-1.154c5.728-3.337,7.012-13.74,4.056-26.8C-1980.26,451.1-1972,444.76-1972,438.085Zm-26.539-13.74c-.754,2.657-1.692,5.4-2.752,8.137-.836-1.648-1.712-3.3-2.67-4.944-.938-1.648-1.936-3.255-2.935-4.82C-2004,423.151-2001.209,423.686-1998.539,424.345Zm-9.335,21.939c-1.59,2.781-3.221,5.418-4.912,7.869-3.037.268-6.115.412-9.213.412-3.078,0-6.156-.144-9.172-.391q-2.538-3.677-4.933-7.828-2.324-4.048-4.24-8.2c1.264-2.76,2.691-5.521,4.219-8.219,1.59-2.781,3.221-5.418,4.912-7.869,3.037-.268,6.115-.412,9.213-.412,3.078,0,6.156.144,9.172.391q2.538,3.677,4.933,7.828,2.324,4.048,4.24,8.2C-2004.939,440.825-2006.346,443.586-2007.874,446.284Zm6.584-2.678c1.1,2.76,2.038,5.521,2.813,8.2-2.67.659-5.483,1.215-8.4,1.648,1-1.586,2-3.214,2.935-4.882.938-1.648,1.814-3.316,2.65-4.965Zm-20.669,21.98a84.655,84.655,0,0,1-5.667-6.592c1.834.082,3.71.144,5.6.144,1.916,0,3.812-.041,5.667-.144a80.165,80.165,0,0,1-5.606,6.592Zm-15.165-12.133c-2.9-.433-5.687-.968-8.357-1.627.754-2.657,1.692-5.4,2.752-8.137.836,1.648,1.712,3.3,2.67,4.944s1.939,3.254,2.939,4.82Zm15.063-42.868a84.687,84.687,0,0,1,5.667,6.592c-1.834-.082-3.71-.144-5.6-.144-1.916,0-3.812.041-5.667.144a80.15,80.15,0,0,1,5.606-6.592Zm-15.084,12.133c-1,1.586-2,3.214-2.935,4.882-.937,1.648-1.814,3.3-2.65,4.944-1.1-2.76-2.038-5.521-2.813-8.2,2.67-.639,5.483-1.2,8.4-1.627Zm-18.447,25.791c-7.215-3.111-11.884-7.189-11.884-10.423s4.668-7.334,11.884-10.424c1.753-.762,3.669-1.442,5.646-2.081a99.643,99.643,0,0,0,4.586,12.545,98.249,98.249,0,0,0-4.525,12.483c-2.018-.639-3.934-1.339-5.708-2.1Zm10.967,29.437c-2.772-1.607-3.975-7.725-3.037-15.594.224-1.936.591-3.976,1.039-6.056a97.837,97.837,0,0,0,12.943,2.245,100.213,100.213,0,0,0,8.479,10.3c-6.645,6.242-12.882,9.661-17.122,9.661a4.823,4.823,0,0,1-2.3-.556Zm48.349-15.7c.958,7.869-.224,13.987-2.976,15.615a4.5,4.5,0,0,1-2.344.536c-4.219,0-10.477-3.4-17.122-9.6a97.114,97.114,0,0,0,8.418-10.279,94.28,94.28,0,0,0,12.964-2.266,58.284,58.284,0,0,1,1.056,6Zm7.848-13.74c-1.753.762-3.669,1.442-5.646,2.081a99.622,99.622,0,0,0-4.586-12.545,98.266,98.266,0,0,0,4.525-12.483c2.018.639,3.934,1.339,5.728,2.1,7.216,3.111,11.883,7.189,11.883,10.423-.02,3.234-4.688,7.333-11.9,10.423Z" fill="#61dafb"/>
      <circle id="Ellipse_49" data-name="Ellipse 49" cx="9.562" cy="9.562" r="9.562" transform="translate(-2031.582 428.523)" fill="#61dafb"/>
    </g>
    <g id="Group_3786" data-name="Group 3786" transform="translate(-941 313)">
      <text id="MongoDB" transform="translate(1347 2569)" fill="#333" font-size="32" font-family="Graphik-Medium, Graphik" font-weight="500"><tspan x="0" y="0">MongoDB</tspan></text>
      <g id="Group_3785" data-name="Group 3785" transform="translate(1320 2447.954)">
        <path id="Path_29776" data-name="Path 29776" d="M1902.72,272.535c-.184.037-.37.444-.37.666-.037,1.481-.074,5.4-.074,8.069a.274.274,0,0,0,.222.222c.555.037,1.888.074,3.035.074a7.923,7.923,0,0,0,3.036-.444,3.932,3.932,0,0,0,1.962-3.7c0-3.59-2.517-4.96-6.256-4.96a5.941,5.941,0,0,0-1.555.074Zm9.55,16.546c0-3.664-2.7-5.7-7.588-5.7-.222,0-1.777-.037-2.147.037-.111.037-.259.111-.259.223,0,2.628-.037,6.811.074,8.439a2.792,2.792,0,0,0,1.222,2,8.472,8.472,0,0,0,3.22.444c2.924,0,5.478-1.629,5.478-5.441Zm-17.1-18.581c.37,0,1.48.111,4.33.111,2.7,0,4.849-.074,7.477-.074,3.22,0,7.662,1.147,7.662,5.959a5.8,5.8,0,0,1-3.849,5.182c-.111.037-.111.111,0,.148,3.109.778,5.848,2.7,5.848,6.329,0,3.554-2.221,5.812-5.441,7.218a17.706,17.706,0,0,1-6.885,1.147c-1.888,0-6.959-.222-9.772-.148-.3-.112.259-1.444.518-1.666a6.911,6.911,0,0,0,1.888-.3c1-.259,1.11-.555,1.258-2.072.074-1.3.074-5.886.074-9.143,0-4.479.037-7.514,0-8.994-.037-1.147-.444-1.518-1.258-1.74-.63-.111-1.666-.259-2.517-.37-.185-.185.444-1.444.667-1.592Zm-21.358,23.023a7.462,7.462,0,0,0,4.183,1,8.2,8.2,0,0,0,5.922-2.11c1.962-1.776,3.331-4.515,3.331-8.883,0-4.183-1.592-7.588-4.849-9.587a13.093,13.093,0,0,0-6.959-1.628,5.548,5.548,0,0,0-2.073.259,1.088,1.088,0,0,0-.37.592c-.074.74-.074,6.441-.074,9.772,0,3.442,0,8.254.074,8.809a2.3,2.3,0,0,0,.814,1.777Zm-8.4-23.023c.7,0,3.405.111,4.7.111,2.332,0,4-.111,8.4-.111a13.694,13.694,0,0,1,9.032,2.887,12,12,0,0,1,4.109,9.476c0,5.589-2.554,8.81-5.109,10.66-2.553,1.888-5.885,3-10.623,3-2.517,0-6.848-.074-10.438-.111h-.037c-.185-.333.3-1.628.592-1.665a5.9,5.9,0,0,0,1.7-.333c.777-.3.925-.7,1.036-2.073.111-2.554.074-5.626.074-9.106,0-2.48.037-7.329-.037-8.884-.111-1.3-.666-1.628-1.777-1.851-.555-.111-1.3-.259-2.332-.37-.148-.26.518-1.407.7-1.628Z" transform="translate(-1711.51 -247.319)" fill="#8e714e"/>
        <path id="Path_29777" data-name="Path 29777" d="M479.576,390.919a7.446,7.446,0,0,1-2.406-.629,1.128,1.128,0,0,1-.3-.592c-.074-1.3-.074-5-.074-7.477a8.725,8.725,0,0,0-1.184-4.96,5.053,5.053,0,0,0-4.294-2.221c-1.628,0-3.812,1.11-5.626,2.665-.037.037-.333.3-.3-.111,0-.407.074-1.221.111-1.777a.959.959,0,0,0-.259-.777,24.7,24.7,0,0,1-5.737,1.48c-.888.186-1.11,1.037-.185,1.333h.037a8.216,8.216,0,0,1,2.183.963,1.152,1.152,0,0,1,.333,1.036c.037,2.776.037,7.033-.074,9.365-.037.925-.3,1.258-.963,1.406l.074-.037a14.629,14.629,0,0,1-1.555.3,2.163,2.163,0,0,0,0,1.666c.407,0,2.554-.111,4.331-.111,2.443,0,3.7.111,4.33.111a2.41,2.41,0,0,0,.185-1.666,6.856,6.856,0,0,1-1.7-.259c-.666-.148-.852-.481-.889-1.258-.073-1.962-.073-6.108-.073-8.921a1.785,1.785,0,0,1,.444-1.37,5.6,5.6,0,0,1,3.443-1.258,3.827,3.827,0,0,1,2.554.852,3.64,3.64,0,0,1,1.19,2.328c.185,1.592.111,4.738.111,7.477,0,1.48-.111,1.851-.666,2.036a7.045,7.045,0,0,1-1.7.333,2.167,2.167,0,0,0,0,1.666c1.073,0,2.332-.111,4.183-.111,2.3,0,3.776.111,4.368.111a2.582,2.582,0,0,0,.111-1.592Zm10.253-14.139c-1.961,0-3.183,1.517-3.183,3.886,0,2.406,1.073,5.182,4.108,5.182a2.868,2.868,0,0,0,1.924-.74,4.9,4.9,0,0,0,1.185-3.405c0-3.072-1.518-4.923-4.035-4.923Zm-.259,16.36a3.182,3.182,0,0,0-1.592.408c-1.555,1-2.258,1.961-2.258,3.109a3.274,3.274,0,0,0,1.3,2.665,6.576,6.576,0,0,0,4.441,1.37c3.776,0,5.441-2.036,5.441-4.034a2.829,2.829,0,0,0-2.147-2.85,14.95,14.95,0,0,0-5.182-.667Zm.259,9.624a8.19,8.19,0,0,1-5.293-1.555,4.878,4.878,0,0,1-1.962-3.664,2.835,2.835,0,0,1,.74-1.851,19.63,19.63,0,0,1,3.4-2.739c.074-.037.111-.074.111-.148a.245.245,0,0,0-.148-.185,3.523,3.523,0,0,1-2.406-2.332v-.074c-.036-.222-.111-.444.223-.666.259-.185.629-.407,1.036-.666a15.189,15.189,0,0,0,1.7-1.111.271.271,0,0,0,.074-.222.245.245,0,0,0-.148-.185c-2.59-.852-3.886-2.776-3.886-5.664a5.62,5.62,0,0,1,2.368-4.664,10.883,10.883,0,0,1,5.33-1.814h.111a11.349,11.349,0,0,1,4.071.888,6.85,6.85,0,0,0,2.407.37,3.2,3.2,0,0,0,2.59-.962,2.01,2.01,0,0,1,.148.74,2.8,2.8,0,0,1-.481,1.7,2.1,2.1,0,0,1-1.628.7h-.185a8.227,8.227,0,0,1-.963-.148l-.148.074c-.037.074,0,.148.037.259l.037.074a13.654,13.654,0,0,1,.222,1.592,6,6,0,0,1-2.517,5.367,8.524,8.524,0,0,1-4.331,1.666,4.661,4.661,0,0,0-.518.037c-.185,0-.444.037-.481.037h-.037c-.3.074-1.036.444-1.036,1.073,0,.555.333,1.222,1.924,1.333.333.037.666.037,1.036.074a32.453,32.453,0,0,1,5.959.74,4.148,4.148,0,0,1,2.776,3.961c0,2.74-1.961,5.293-5.219,6.885a11.909,11.909,0,0,1-4.923,1.074Zm21.1-25.8a3.438,3.438,0,0,0-2,.555c-1.443.888-2.184,2.665-2.184,5.256,0,4.849,2.443,8.255,5.922,8.255a3.766,3.766,0,0,0,2.554-.888c1.073-.889,1.629-2.665,1.629-5.145,0-4.812-2.406-8.032-5.922-8.032Zm.667,15.842c-6.293,0-8.55-4.627-8.55-8.957a8.014,8.014,0,0,1,3.664-7.033,11.142,11.142,0,0,1,5.664-1.665c4.812,0,8.18,3.442,8.18,8.4a8.594,8.594,0,0,1-3.887,7.662,10.264,10.264,0,0,1-5.071,1.592Zm-65.96-15.842a3.439,3.439,0,0,0-2,.555c-1.443.888-2.184,2.665-2.184,5.256,0,4.849,2.443,8.255,5.922,8.255a3.768,3.768,0,0,0,2.554-.888c1.073-.889,1.628-2.665,1.628-5.145,0-4.812-2.369-8.032-5.922-8.032Zm.666,15.842c-6.292,0-8.55-4.627-8.55-8.957a8.013,8.013,0,0,1,3.664-7.033,11.141,11.141,0,0,1,5.664-1.665c4.812,0,8.18,3.442,8.18,8.4a8.594,8.594,0,0,1-3.887,7.662,10.027,10.027,0,0,1-5.071,1.592Zm-42.307-.37a1.581,1.581,0,0,1-.111-.851,1.25,1.25,0,0,1,.111-.555,13.66,13.66,0,0,0,1.628-.333c.74-.185,1.036-.592,1.073-1.517.112-2.221.112-6.441.074-9.365v-.074a1.121,1.121,0,0,0-.407-1.036,8.362,8.362,0,0,0-2.221-.963c-.333-.11-.555-.3-.518-.517,0-.222.222-.481.7-.556a27.077,27.077,0,0,0,5.663-1.444.915.915,0,0,1,.185.592l-.037.407c-.037.408-.074.889-.074,1.37a.286.286,0,0,0,.3.259.521.521,0,0,0,.222-.074,10.439,10.439,0,0,1,5.626-2.517,4.792,4.792,0,0,1,4.294,2.628.279.279,0,0,0,.259.148.264.264,0,0,0,.222-.111c2.184-1.666,4.368-2.665,5.811-2.665,3.442,0,5.478,2.554,5.478,6.885,0,1.221,0,2.813-.037,4.257,0,1.3-.037,2.48-.037,3.331a1.164,1.164,0,0,0,.666.888,7.9,7.9,0,0,0,2.147.518h.037a2.969,2.969,0,0,1-.222,1.407,9.1,9.1,0,0,1-.925-.037q-1.405-.073-2.813-.074c-2.3,0-3.479.037-4.627.111a3.609,3.609,0,0,1,0-1.407,11.494,11.494,0,0,0,1.407-.333c.74-.222.925-.555.963-1.518,0-.7.148-6.7-.075-8.143a3.649,3.649,0,0,0-3.776-3.22,6.564,6.564,0,0,0-3.775,1.443.66.66,0,0,0-.148.37v.037a17.055,17.055,0,0,1,.148,3.035v2.406c0,1.666-.037,3.22,0,4.4a1.085,1.085,0,0,0,.888,1.148c.222.036.37.074.555.111.333.074.666.148,1.184.259a2,2,0,0,1-.037,1.036.711.711,0,0,1-.148.37c-1.258-.037-2.554-.074-4.441-.074-.555,0-1.518.037-2.332.037-.667,0-1.3.037-1.665.037a1.953,1.953,0,0,1-.111-.74,1.153,1.153,0,0,1,.148-.666,2.5,2.5,0,0,1,.518-.074c.444-.074.814-.148,1.184-.222.63-.185.852-.518.888-1.332a64.228,64.228,0,0,0-.037-8.477c-.444-2.147-1.665-3.22-3.628-3.22a6.792,6.792,0,0,0-3.775,1.444,1.2,1.2,0,0,0-.333.851v2.184c0,2.665,0,6,.037,7.44a1.148,1.148,0,0,0,1.036,1.147,7.766,7.766,0,0,0,.852.148l.666.111a3.1,3.1,0,0,1-.111,1.407c-.37,0-.814-.037-1.333-.037-.777-.037-1.776-.074-2.887-.074-1.3,0-2.221.037-2.961.074a8.941,8.941,0,0,0-1.369-.074Z" transform="translate(-370.463 -343.272)" fill="#442d22"/>
        <path id="Path_29778" data-name="Path 29778" d="M118.144,138.005l-1.517-.519s.185-7.736-2.591-8.291c-1.85-2.147.3-91.056,6.959-.3,0,0-2.3,1.147-2.7,3.109a28.551,28.551,0,0,0-.148,6Z" transform="translate(-104.084 -79.957)" fill="#fff"/>
        <path id="Path_29779" data-name="Path 29779" d="M118.144,138.005l-1.517-.519s.185-7.736-2.591-8.291c-1.85-2.147.3-91.056,6.959-.3,0,0-2.3,1.147-2.7,3.109a28.551,28.551,0,0,0-.148,6Z" transform="translate(-104.084 -79.957)" fill="#a6a385"/>
        <path id="Path_29780" data-name="Path 29780" d="M155.018,52.23s13.289-8.736,10.179-26.91c-3-13.214-10.068-17.544-10.845-19.21a18.686,18.686,0,0,1-1.666-3.257l.555,36.755c0,.037-1.148,11.253,1.777,12.623" transform="translate(-140.143 -1.659)" fill="#fff"/>
        <path id="Path_29781" data-name="Path 29781" d="M155.018,52.23s13.289-8.736,10.179-26.91c-3-13.214-10.068-17.544-10.845-19.21a18.686,18.686,0,0,1-1.666-3.257l.555,36.755c0,.037-1.148,11.253,1.777,12.623" transform="translate(-140.143 -1.659)" fill="#499d4a"/>
        <path id="Path_29782" data-name="Path 29782" d="M11.766,51.052S-.709,42.539.032,27.548c.7-14.99,9.512-22.356,11.215-23.689a3.446,3.446,0,0,0,1.222-2.813c.777,1.666.629,24.911.74,27.65C13.542,39.245,12.617,49.054,11.766,51.052Z" fill="#fff"/>
        <path id="Path_29783" data-name="Path 29783" d="M11.766,51.052S-.709,42.539.032,27.548c.7-14.99,9.512-22.356,11.215-23.689a3.446,3.446,0,0,0,1.222-2.813c.777,1.666.629,24.911.74,27.65C13.542,39.245,12.617,49.054,11.766,51.052Z" fill="#58aa50"/>
      </g>
    </g>
    <text id="Node.JS" transform="translate(78 2883)" fill="#333" font-size="26" font-family="Graphik-Medium, Graphik" font-weight="500"><tspan x="0" y="0">Node.JS</tspan></text>
    <g id="Group_3787" data-name="Group 3787" transform="translate(90.653 2749.818)">
      <path id="Path_29784" data-name="Path 29784" d="M35.413,5.959a6.108,6.108,0,0,1,5.963,0Q54.992,13.653,68.61,21.343a5.606,5.606,0,0,1,2.832,4.829v30.86A5.667,5.667,0,0,1,68.4,61.966q-13.572,7.652-27.138,15.31a5.935,5.935,0,0,1-6.029-.168q-4.07-2.359-8.143-4.708a4.794,4.794,0,0,1-1.571-1.131c.346-.466.965-.525,1.467-.728a19,19,0,0,0,3.212-1.5.75.75,0,0,1,.836.05c2.32,1.33,4.619,2.7,6.946,4.016.5.287,1-.094,1.424-.33Q52.723,65.25,66.051,57.74a.881.881,0,0,0,.484-.868q.009-15.271,0-30.543a.954.954,0,0,0-.569-.952q-13.522-7.616-27.04-15.242a.939.939,0,0,0-1.062,0Q24.341,17.754,10.823,25.382a.943.943,0,0,0-.572.948q0,15.271,0,30.544a.864.864,0,0,0,.49.857q3.609,2.046,7.222,4.078a5.581,5.581,0,0,0,4.515.6A3.425,3.425,0,0,0,24.7,59.195c.012-10.121-.006-20.243.009-30.363a.762.762,0,0,1,.83-.778c1.156-.008,2.313-.016,3.469,0a.8.8,0,0,1,.755.926q0,15.278-.008,30.555c0,2.714-1.112,5.668-3.623,7a11.157,11.157,0,0,1-9.972-.274c-2.645-1.32-5.17-2.879-7.768-4.293A5.654,5.654,0,0,1,5.35,57.033V26.171a5.617,5.617,0,0,1,2.929-4.89Q21.846,13.623,35.413,5.959Z" fill="#8cc84b"/>
      <path id="Path_29785" data-name="Path 29785" d="M939.825,758.986c3.946-.254,8.169-.151,11.72,1.793a8.863,8.863,0,0,1,4.321,7.67.83.83,0,0,1-.9.611c-1.145,0-2.29.016-3.435-.008a.885.885,0,0,1-.829-.858,5.228,5.228,0,0,0-2.5-3.613c-2.111-1.057-4.559-1-6.862-.982a9.313,9.313,0,0,0-4.912,1.223,3.112,3.112,0,0,0-1.035,3.477c.368.874,1.377,1.156,2.2,1.416,4.755,1.244,9.794,1.12,14.458,2.756a6.807,6.807,0,0,1,4.481,3.986,8.515,8.515,0,0,1-1.442,8.124,11.384,11.384,0,0,1-6.112,3.294,29.367,29.367,0,0,1-9.225.392c-2.885-.329-5.888-1.087-8.115-3.053A8.516,8.516,0,0,1,928.9,778.5a.769.769,0,0,1,.843-.678c1.153-.009,2.306-.012,3.458,0a.808.808,0,0,1,.825.8,5.24,5.24,0,0,0,1.95,3.679c2.343,1.512,5.283,1.408,7.966,1.45,2.223-.1,4.718-.128,6.531-1.6a3.607,3.607,0,0,0,.982-3.446c-.28-1.018-1.345-1.493-2.26-1.8-4.694-1.485-9.789-.946-14.437-2.625a7.027,7.027,0,0,1-4.437-3.867,7.92,7.92,0,0,1,1.582-8.24c2.077-2.091,5.075-2.9,7.925-3.184Z" transform="translate(-896.52 -731.649)" fill="#8cc84b"/>
    </g>
    <path id="Path_29786" data-name="Path 29786" d="M17.1,53.9c0,.1-.1.2-.2.1C17,53.9,17,53.9,17.1,53.9Z" transform="translate(-89.675 2745.2)" fill="#000002"/>
    <g id="Group_3791" data-name="Group 3791" transform="translate(-951 305)">
      <g id="Group_3789" data-name="Group 3789" transform="translate(861 2481.564)">
        <path id="Path_29788" data-name="Path 29788" d="M20.2,55.808c.875-1.125,1.624-2.124,2.5-3.249l1.125-1.5a.649.649,0,0,1,.5-.25v.25c-1.125,1.375-2.124,2.874-3.249,4.249a3.313,3.313,0,0,1-.625.75c-.25.25-.125.375,0,.5a22.816,22.816,0,0,0,1.624,2L24.7,61.931c0,.125.125.125.125.25-.25.125-.375,0-.5-.25l-1.5-1.874c-.875-1.125-1.749-2.249-2.5-3.249-.125-.25-.25-.125-.375,0a18.366,18.366,0,0,0-1.25,1.624c-.875,1.25-1.874,2.374-2.749,3.624a1.127,1.127,0,0,1-.625.125H5.206c-.5,0-.5,0-.5-.5V47.061c0-.25-.125-.625.125-.75.125-.125.5,0,.75,0H15.2c.125,0,.125,0,.125.125s0,.25-.125.25H5.581c-.375,0-.375,0-.375.375v6.373c0,.375,0,.375.375.375h8.872c.125,0,.25,0,.25.125a.269.269,0,0,1-.25.25h-9c-.375,0-.375,0-.375.375v7c0,.375,0,.375.5.375h9.247a1.384,1.384,0,0,0,1.25-.625c.75-1,1.5-1.874,2.124-2.874l1.5-1.874c.25-.25.25-.25,0-.625a44.4,44.4,0,0,1-2.874-3.874c-.375-.375-.625-.875-1-1.25.375-.125.375-.125.625.125a21.2,21.2,0,0,1,1.25,1.749c.75,1.125,1.624,2.124,2.374,3.249a.122.122,0,0,1,.126-.127Z" transform="translate(-4.675 -46.256)" fill="#191919" stroke="#191919" stroke-miterlimit="10" stroke-width="0.5"/>
        <path id="Path_29789" data-name="Path 29789" d="M48.923,61.571a7.076,7.076,0,0,1-2.249-.375,3.348,3.348,0,0,1-2.374-3v-.625c0-.125,0-.125.125-.125s.125,0,.25.125V58.2A3.091,3.091,0,0,0,46.8,60.946a5.082,5.082,0,0,0,2.749.25,5.528,5.528,0,0,0,1.874-.625,2.437,2.437,0,0,0,1.125-2.749,2.292,2.292,0,0,0-.875-1.25,4.439,4.439,0,0,0-1.125-.5,22.852,22.852,0,0,0-3.124-.75,4.476,4.476,0,0,1-1.375-.5,2.117,2.117,0,0,1-1.25-2.5,2.567,2.567,0,0,1,1.749-2.249,5.857,5.857,0,0,1,4.124,0,2.964,2.964,0,0,1,2,3c0,.125,0,.25-.125.25a.269.269,0,0,1-.25-.25,1.585,1.585,0,0,0-.125-.75,2.715,2.715,0,0,0-1.624-1.874,4.873,4.873,0,0,0-3.749,0A2.324,2.324,0,0,0,45.175,53.2a1.877,1.877,0,0,0,1.375,1.5c.75.25,1.5.375,2.249.625a20.686,20.686,0,0,1,2.624.75l.75.375a2.389,2.389,0,0,1,.875,2.5A2.77,2.77,0,0,1,51.3,61.071a5.071,5.071,0,0,1-2.377.5Z" transform="translate(5.214 -45.396)" fill="#191919" stroke="#191919" stroke-miterlimit="10" stroke-width="0.5"/>
        <path id="Path_29790" data-name="Path 29790" d="M56.973,49.991a5.837,5.837,0,0,0-2.124.375,2.363,2.363,0,0,0-1.375,3,2.2,2.2,0,0,0,1.25,1.125c.75.25,1.5.375,2.249.625a20.684,20.684,0,0,1,2.624.75,2.614,2.614,0,0,1,.75.5,2.689,2.689,0,0,1,0,4,3.706,3.706,0,0,1-1.874.875,6.6,6.6,0,0,1-3.5-.25,3.22,3.22,0,0,1-2.249-2.749,1.585,1.585,0,0,0-.125-.75c0-.125,0-.25.25-.25.125,0,.125.125.125.25a2.751,2.751,0,0,0,.125,1,2.97,2.97,0,0,0,2.124,2.374,5.891,5.891,0,0,0,3.874-.125,2.4,2.4,0,0,0,1.749-2.5,2.153,2.153,0,0,0-1-1.749,7.645,7.645,0,0,0-1.5-.625c-1-.25-1.874-.5-2.874-.75-.375-.125-.875-.25-1.25-.375a2.2,2.2,0,0,1-1.375-2,2.451,2.451,0,0,1,1.125-2.5,4.619,4.619,0,0,1,1.375-.625,7.326,7.326,0,0,1,2.874.125,2.883,2.883,0,0,1,2.124,1.624,2.472,2.472,0,0,1,.25,1.375c0,.125,0,.25-.125.25-.25,0-.125-.125-.25-.25a3.544,3.544,0,0,0-.5-1.624,3.167,3.167,0,0,0-2.249-1.25C57.6,49.991,57.223,49.991,56.973,49.991Z" transform="translate(7.286 -45.437)" fill="#191919" stroke="#191919" stroke-miterlimit="10" stroke-width="0.5"/>
        <path id="Path_29791" data-name="Path 29791" d="M31.7,52.474a13.628,13.628,0,0,1,.75-1.375,4.6,4.6,0,0,1,2.374-1.375A2.126,2.126,0,0,1,35.7,49.6c.125,0,.375,0,.375.125,0,.25-.125.25-.375.25a3.254,3.254,0,0,0-1.874.5,4.19,4.19,0,0,0-1.874,2.249,5.837,5.837,0,0,0-.375,2.124v6.373c0,.125-.125.125-.25.125a.122.122,0,0,1-.125-.125V50.1c0-.125,0-.125.125-.125s.25,0,.25.125v.375a11.434,11.434,0,0,0,.125,2Z" transform="translate(1.945 -45.421)" fill="#191919" stroke="#191919" stroke-miterlimit="10" stroke-width="0.5"/>
        <path id="Path_29792" data-name="Path 29792" d="M44.908,52.824a4.409,4.409,0,0,0-1.5-2.124,4.686,4.686,0,0,0-3.124-1,4.478,4.478,0,0,0-3,1.125,5.808,5.808,0,0,0-1.624,2.624,8.4,8.4,0,0,0,.25,5.248,4.165,4.165,0,0,0,2,2.374,5.733,5.733,0,0,0,3.249.375,4.491,4.491,0,0,0,2.249-.875A4.016,4.016,0,0,0,45.033,57.7c0-.125,0-.25-.125-.25s-.25,0-.25.125a.459.459,0,0,1-.125.375,3.454,3.454,0,0,1-2.124,2.75,4.573,4.573,0,0,1-2.874.5,3.965,3.965,0,0,1-3.5-2.374,9.809,9.809,0,0,1-.625-2.749c0-.5,0-.5.375-.5h8.747c.375,0,.375,0,.375-.375a3.124,3.124,0,0,0,0-2.378Zm-.5,2.5h-8.5c-.25,0-.25-.125-.25-.25a6.363,6.363,0,0,1,.75-2.624,4.146,4.146,0,0,1,2-1.874,4.237,4.237,0,0,1,3.874,0,4.856,4.856,0,0,1,2.249,2.749,6.272,6.272,0,0,1,.25,1.5c.127.5.127.5-.372.5Z" transform="translate(2.981 -45.396)" fill="#191919" stroke="#191919" stroke-miterlimit="10" stroke-width="0.5"/>
        <path id="Path_29793" data-name="Path 29793" d="M30.822,52.349A4.494,4.494,0,0,0,26.573,49.6a4.728,4.728,0,0,0-3.5,1.5,4.68,4.68,0,0,0-.875,1.5c0,.125,0,.125-.125.125L21.95,52.6V49.725a.122.122,0,0,0-.125-.125c-.125,0-.125,0-.125.125V63.6c0,.25.125.25.25.125h0c.125-.125,0-.25,0-.375V58.472s.125-.125.125,0,0,.25.125.25a.122.122,0,0,0,.125.125v.125a.122.122,0,0,0,.125.125c0,.125.125.25.125.375h0a4.111,4.111,0,0,0,3.124,2,4.611,4.611,0,0,0,5-2.5A7.284,7.284,0,0,0,30.822,52.349Zm-.5,6.373a4.019,4.019,0,0,1-5.873,1.749,4.892,4.892,0,0,1-1.25-1c-.125-.125-.25-.125-.25-.25a.122.122,0,0,0-.125-.125c-.125-.125-.125-.375-.25-.5a.436.436,0,0,0-.125-.25.309.309,0,0,0-.125-.5c0-.75-.125-1.375-.125-2.124a5.938,5.938,0,0,1,.75-3.249,4.149,4.149,0,0,1,4-2.249,3.808,3.808,0,0,1,3.5,2.5A7.691,7.691,0,0,1,30.322,58.722Z" transform="translate(-0.426 -45.421)" fill="#191919" stroke="#191919" stroke-miterlimit="10" stroke-width="0.5"/>
      </g>
      <g id="Group_3790" data-name="Group 3790" transform="translate(936.872 2466)">
        <path id="Path_29787" data-name="Path 29787" d="M105.388,73.161V34.175c0-.375,0-.375-.375-.375H66.026c-.75,0-.625,0-.625.625V73.161c0,.75-.125.625.625.625h38.737C105.513,73.786,105.388,73.911,105.388,73.161ZM87.144,66.414a4.879,4.879,0,0,1-3.124,4,8.254,8.254,0,0,1-3,.375,4.62,4.62,0,0,1-2.624-.75,5.7,5.7,0,0,1-2.374-2.5c-.125-.125,0-.25.125-.25.5-.375,1.125-.625,1.624-1,.25-.25.625-.375.875-.625.125-.125.25-.125.375.125a3.891,3.891,0,0,0,.875,1.125,2.277,2.277,0,0,0,2.624.25,1.147,1.147,0,0,0,.5-.75,3.971,3.971,0,0,0,.25-1.749V52.918c0-.75-.125-.625.625-.625h2.624c.5,0,.5,0,.5.5V64.414a10.1,10.1,0,0,1,.125,2Zm15.12,0a4.843,4.843,0,0,1-3.5,4,8.792,8.792,0,0,1-4.748.125,6.514,6.514,0,0,1-3.749-2.249c-.25-.375-.625-.75-.875-1.125-.125-.125-.125-.25.125-.375.875-.5,1.624-1,2.5-1.5.25-.125.25-.125.5.125a4.308,4.308,0,0,0,1.5,1.5,3.506,3.506,0,0,0,3.5.125,1.716,1.716,0,0,0,.375-2.874,6.732,6.732,0,0,0-1.624-.875c-1-.5-2-.875-3-1.375a6.847,6.847,0,0,1-2.249-2,5.674,5.674,0,0,1-.75-4,4.554,4.554,0,0,1,2.374-3.249,8.294,8.294,0,0,1,2.5-.75,5.683,5.683,0,0,1,3.5.625,5.155,5.155,0,0,1,2.124,1.874c.125.125.25.375.375.5-.75.5-1.5,1-2.374,1.5-.125.125-.375.375-.625.25-.25,0-.25-.375-.375-.5a2.251,2.251,0,0,0-3-.75,1.2,1.2,0,0,0-.75,1.125,1.678,1.678,0,0,0,.875,1.749,12.61,12.61,0,0,0,1.874.875,15.581,15.581,0,0,1,3.5,1.874,4.308,4.308,0,0,1,1.749,2.624,7.071,7.071,0,0,1,.248,2.751Z" transform="translate(-65.394 -33.8)" fill="#f7df1d"/>
        <path id="Path_29794" data-name="Path 29794" d="M85.032,62.8a4.879,4.879,0,0,1-3.124,4,8.254,8.254,0,0,1-3,.375,4.62,4.62,0,0,1-2.624-.75,5.7,5.7,0,0,1-2.374-2.5c-.125-.125,0-.25.125-.25.5-.375,1.125-.625,1.624-1,.25-.25.625-.375.875-.625.125-.125.25-.125.375.125a3.891,3.891,0,0,0,.875,1.125,2.277,2.277,0,0,0,2.624.25,1.147,1.147,0,0,0,.5-.75,3.971,3.971,0,0,0,.25-1.749V49.308c0-.75-.125-.625.625-.625h2.624c.5,0,.5,0,.5.5V60.8A10.1,10.1,0,0,1,85.032,62.8Zm15.12,0a4.843,4.843,0,0,1-3.5,4,8.792,8.792,0,0,1-4.748.125,6.514,6.514,0,0,1-3.749-2.249c-.25-.375-.625-.75-.875-1.125-.125-.125-.125-.25.125-.375.875-.5,1.624-1,2.5-1.5.25-.125.25-.125.5.125a4.307,4.307,0,0,0,1.5,1.5,3.506,3.506,0,0,0,3.5.125,1.716,1.716,0,0,0,.375-2.874,6.732,6.732,0,0,0-1.624-.875c-1-.5-2-.875-3-1.375a6.847,6.847,0,0,1-2.249-2,5.674,5.674,0,0,1-.75-4,4.554,4.554,0,0,1,2.374-3.249,8.294,8.294,0,0,1,2.5-.75,5.683,5.683,0,0,1,3.5.625A5.155,5.155,0,0,1,98.655,50.8c.125.125.25.375.375.5-.75.5-1.5,1-2.374,1.5-.125.125-.375.375-.625.25-.25,0-.25-.375-.375-.5a2.251,2.251,0,0,0-3-.75,1.2,1.2,0,0,0-.75,1.125,1.678,1.678,0,0,0,.875,1.749,12.61,12.61,0,0,0,1.874.875,15.581,15.581,0,0,1,3.5,1.874,4.308,4.308,0,0,1,1.745,2.63,7.071,7.071,0,0,1,.251,2.745Z" transform="translate(-63.281 -30.19)"/>
      </g>
    </g>
  </g>
</svg>
